<svg width="20" height="20" xmlns="http://www.w3.org/2000/svg">

 <g>
  <title>background</title>
  <rect fill="none" id="canvas_background" height="402" width="582" y="-1" x="-1"/>
 </g>
 <g>
  <title>Layer 1</title>
  <path fill="#ffffff" id="svg_1" d="m15,2c1.65685,0 3,1.34315 3,3l0,10c0,1.65685 -1.34315,3 -3,3l-10,0c-1.65685,0 -3,-1.34315 -3,-3l0,-10c0,-1.65685 1.34315,-3 3,-3l10,0zm0,2l-10,0c-0.55228,0 -1,0.44772 -1,1l0,7.697l2.18627,-3.27824c0.3139,-0.43946 0.91322,-0.54505 1.35497,-0.25978l0.09894,0.0728l5.14508,4.28756l3.21474,-5.77434l0,-2.745c0,-0.55228 -0.44772,-1 -1,-1zm-8.5,4c0.82843,0 1.5,-0.67157 1.5,-1.5c0,-0.82843 -0.67157,-1.5 -1.5,-1.5c-0.82843,0 -1.5,0.67157 -1.5,1.5c0,0.82843 0.67157,1.5 1.5,1.5z" fill-rule="evenodd"/>
 </g>
</svg>