<svg width="36" height="36" viewBox="0 0 36 36" fill="none" xmlns="http://www.w3.org/2000/svg">
<path fill-rule="evenodd" clip-rule="evenodd" d="M36 18C36 8.05887 27.9411 0 18 0C8.05887 0 0 8.05887 0 18C0 27.9411 8.05887 36 18 36C27.9411 36 36 27.9411 36 18ZM30 18C30 19.5385 28.8419 20.8065 27.3499 20.9798L27 21H16.248L17.1213 21.8787L17.3709 22.1613C18.286 23.3382 18.2028 25.0399 17.1213 26.1213C16.0399 27.2028 14.3382 27.286 13.1613 26.3709L12.8787 26.1213L6.87868 20.1213L6.65907 19.8763L6.43799 19.5621L6.28102 19.2697L6.14921 18.9364L6.06072 18.6022L6.00836 18.2257L6 18L6.02072 17.6457L6.10754 17.202L6.21368 16.886L6.37401 16.5478L6.589 16.2141L6.75449 16.0106L6.87868 15.8787L12.8787 9.87868L13.1613 9.62911C14.2401 8.79029 15.7599 8.79029 16.8387 9.62911L17.1213 9.87868L17.3709 10.1613L17.5789 10.4658C18.1965 11.5023 18.1348 12.8311 17.3936 13.8092L17.1213 14.1213L16.242 15H27C28.6569 15 30 16.3431 30 18Z" fill="#D1D1D1"/>
</svg>
