<svg width="50" height="50" viewBox="0 0 50 50" fill="none" xmlns="http://www.w3.org/2000/svg">
<circle cx="25" cy="25" r="25" fill="#FFE11A"/>
<path fill-rule="evenodd" clip-rule="evenodd" d="M23.3333 25H26.6667C31.269 25 35 28.731 35 33.3333C35 34.1881 34.3566 34.8925 33.5277 34.9888L33.3333 35H16.6667C15.7462 35 15 34.2538 15 33.3333C15 28.8521 18.5372 25.197 22.9718 25.0077L23.3333 25H26.6667H23.3333ZM25 15C27.7614 15 30 17.2386 30 20C30 22.7614 27.7614 25 25 25C22.2386 25 20 22.7614 20 20C20 17.2386 22.2386 15 25 15Z" fill="black"/>
</svg>
