<svg width="36" height="21" viewBox="0 0 36 21" fill="none" xmlns="http://www.w3.org/2000/svg">
<path fill-rule="evenodd" clip-rule="evenodd" d="M33 16.8C34.6569 16.8 36 17.7402 36 18.9C36 20.0598 34.6569 21 33 21H3C1.34315 21 0 20.0598 0 18.9C0 17.7402 1.34315 16.8 3 16.8H33ZM33 8.4C34.6569 8.4 36 9.3402 36 10.5C36 11.6598 34.6569 12.6 33 12.6H3C1.34315 12.6 0 11.6598 0 10.5C0 9.3402 1.34315 8.4 3 8.4H33ZM33 0C34.6569 0 36 0.940202 36 2.1C36 3.2598 34.6569 4.2 33 4.2H3C1.34315 4.2 0 3.2598 0 2.1C0 0.940202 1.34315 0 3 0H33Z" fill="#43BCCD"/>
</svg>
