<svg width="17" height="18" viewBox="0 0 17 18" fill="none" xmlns="http://www.w3.org/2000/svg">
<path fill-rule="evenodd" clip-rule="evenodd" d="M11.05 0C14.3361 0 17 2.35051 17 5.25C17 8.05285 14.5107 10.3427 11.3765 10.4922L11.05 10.5H6.8V12H8.5C9.43888 12 10.2 12.6716 10.2 13.5C10.2 14.3284 9.43888 15 8.5 15H6.8V16.5C6.8 17.3284 6.03888 18 5.1 18C4.16112 18 3.4 17.3284 3.4 16.5V15H1.7C0.761116 15 0 14.3284 0 13.5C0 12.6716 0.761116 12 1.7 12H3.4V10.5H1.7C0.761116 10.5 0 9.82843 0 9C0 8.23075 0.656268 7.59674 1.50174 7.51009L1.7 7.5H3.4V1.5C3.4 0.671573 4.16112 0 5.1 0H11.05ZM11.05 3H6.8V7.5H11.05C12.4583 7.5 13.6 6.49264 13.6 5.25C13.6 4.08046 12.5887 3.11933 11.2956 3.0103L11.05 3Z" fill="black"/>
</svg>
