<svg width="36" height="36" viewBox="0 0 36 36" fill="none" xmlns="http://www.w3.org/2000/svg">
<path fill-rule="evenodd" clip-rule="evenodd" d="M29.25 0C32.9779 0 36 3.02208 36 6.75V29.25C36 32.9779 32.9779 36 29.25 36H6.75C3.02208 36 0 32.9779 0 29.25V6.75C0 3.02208 3.02208 0 6.75 0H29.25ZM18 6C16.4615 6 15.1935 7.15812 15.0202 8.65014L15 9V27C15 28.6569 16.3431 30 18 30C19.5385 30 20.8065 28.8419 20.9798 27.3499L21 27V9C21 7.34315 19.6569 6 18 6ZM27 12C25.4615 12 24.1935 13.1581 24.0202 14.6501L24 15V27C24 28.6569 25.3431 30 27 30C28.5385 30 29.8065 28.8419 29.9798 27.3499L30 27V15C30 13.3431 28.6569 12 27 12ZM9 18C7.46149 18 6.19348 19.1581 6.02018 20.6501L6 21V27C6 28.6569 7.34315 30 9 30C10.5385 30 11.8065 28.8419 11.9798 27.3499L12 27V21C12 19.3431 10.6569 18 9 18Z" fill="#F9C80E"/>
</svg>
