<svg width="20" height="13" viewBox="0 0 20 13" fill="none" xmlns="http://www.w3.org/2000/svg">
<path fill-rule="evenodd" clip-rule="evenodd" d="M12.0162 0.586796L12.1548 0.443989C12.7556 -0.102459 13.701 -0.144494 14.3548 0.317885L14.5118 0.443989L19.5118 4.99161L19.5808 5.05825L19.6728 5.16108L19.7922 5.32972L19.8813 5.50059L19.9403 5.66028L19.9885 5.88447L20 6.06349L19.9954 6.17754L19.9663 6.36777L19.9171 6.53666L19.8439 6.70504L19.7567 6.85282L19.6339 7.01159L19.5118 7.13538L14.5118 11.683C13.861 12.275 12.8057 12.275 12.1548 11.683C11.554 11.1365 11.5078 10.2767 12.0162 9.68203L12.1548 9.53923L14.3083 7.57936H1.66667C0.746192 7.57936 0 6.90069 0 6.06349C0 5.2263 0.746192 4.54762 1.66667 4.54762H14.3083L12.1548 2.58776C11.554 2.04131 11.5078 1.18146 12.0162 0.586796L12.1548 0.443989L12.0162 0.586796Z" fill="black" fill-opacity="0.6"/>
</svg>
