<svg width="36" height="21" viewBox="0 0 36 21" fill="none" xmlns="http://www.w3.org/2000/svg">
<path fill-rule="evenodd" clip-rule="evenodd" d="M14.3709 1.01614L14.1213 0.768845C13.0399 -0.177425 11.3382 -0.250216 10.1613 0.550474L9.87868 0.768845L0.87868 8.64385L0.754488 8.75924L0.589004 8.93732L0.374014 9.22934L0.213676 9.52524L0.107535 9.80177L0.0207217 10.19L0 10.5L0.00836349 10.6975L0.0607202 11.0269L0.149215 11.3194L0.28102 11.611L0.437986 11.8669L0.659066 12.1418L0.87868 12.3562L9.87868 20.2312C11.0503 21.2563 12.9497 21.2563 14.1213 20.2312C15.2028 19.2849 15.286 17.7959 14.3709 16.7661L14.1213 16.5188L10.245 13.125H33C34.6569 13.125 36 11.9497 36 10.5C36 9.05025 34.6569 7.875 33 7.875H10.245L14.1213 4.48115C15.2028 3.53488 15.286 2.0459 14.3709 1.01614Z" fill="black"/>
</svg>
