<svg width="24" height="24" viewBox="0 0 24 24" fill="none" xmlns="http://www.w3.org/2000/svg">
<path fill-rule="evenodd" clip-rule="evenodd" d="M10.125 0.75C15.3027 0.75 19.5 4.94733 19.5 10.125C19.5 12.0358 18.9283 13.8131 17.9467 15.2952L22.7008 20.0492C23.4331 20.7814 23.4331 21.9686 22.7008 22.7008C22.0249 23.3767 20.9614 23.4287 20.2258 22.8568L20.0492 22.7008L15.2952 17.9467C13.8131 18.9283 12.0358 19.5 10.125 19.5C4.94733 19.5 0.75 15.3027 0.75 10.125C0.75 4.94733 4.94733 0.75 10.125 0.75ZM10.125 4.5C7.0184 4.5 4.5 7.0184 4.5 10.125C4.5 13.2316 7.0184 15.75 10.125 15.75C13.2316 15.75 15.75 13.2316 15.75 10.125C15.75 7.0184 13.2316 4.5 10.125 4.5Z" fill="black"/>
</svg>
