<svg width="36" height="21" viewBox="0 0 36 21" fill="none" xmlns="http://www.w3.org/2000/svg">
<path fill-rule="evenodd" clip-rule="evenodd" d="M21.6291 1.01614L21.8787 0.768845C22.9601 -0.177425 24.6618 -0.250216 25.8387 0.550474L26.1213 0.768845L35.1213 8.64385L35.2455 8.75924L35.411 8.93732L35.626 9.22934L35.7863 9.52524L35.8925 9.80177L35.9793 10.19L36 10.5L35.9916 10.6975L35.9393 11.0269L35.8508 11.3194L35.719 11.611L35.562 11.8669L35.3409 12.1418L35.1213 12.3562L26.1213 20.2312C24.9497 21.2563 23.0503 21.2563 21.8787 20.2312C20.7972 19.2849 20.714 17.7959 21.6291 16.7661L21.8787 16.5188L25.755 13.125H3C1.34315 13.125 0 11.9497 0 10.5C0 9.05025 1.34315 7.875 3 7.875H25.755L21.8787 4.48115C20.7972 3.53488 20.714 2.0459 21.6291 1.01614L21.8787 0.768845L21.6291 1.01614Z" fill="black"/>
</svg>
