<svg width="31" height="31" viewBox="0 0 31 31" fill="none" xmlns="http://www.w3.org/2000/svg">
<path fill-rule="evenodd" clip-rule="evenodd" d="M23 24.75C24.3807 24.75 25.5 26.0931 25.5 27.75C25.5 29.4069 24.3807 30.75 23 30.75H3C1.61929 30.75 0.5 29.4069 0.5 27.75C0.5 26.0931 1.61929 24.75 3 24.75H23ZM13 12.75C14.3807 12.75 15.5 14.0931 15.5 15.75C15.5 17.4069 14.3807 18.75 13 18.75H3C1.61929 18.75 0.5 17.4069 0.5 15.75C0.5 14.0931 1.61929 12.75 3 12.75H13ZM28 0.75C29.3807 0.75 30.5 2.09315 30.5 3.75C30.5 5.40685 29.3807 6.75 28 6.75H3C1.61929 6.75 0.5 5.40685 0.5 3.75C0.5 2.09315 1.61929 0.75 3 0.75H28Z" fill="#F9C80E"/>
</svg>
