<svg width="30" height="25" viewBox="0 0 30 25" fill="none" xmlns="http://www.w3.org/2000/svg">
<path fill-rule="evenodd" clip-rule="evenodd" d="M19.2857 0C20.4692 0 21.4286 0.93274 21.4286 2.08333V4.16667H27.8571C29.0406 4.16667 30 5.09941 30 6.25C30 7.40059 29.0406 8.33333 27.8571 8.33333H25.7143V18.75C25.7143 22.2018 23.3158 25 20.3571 25H9.64286C6.68419 25 4.28571 22.2018 4.28571 18.75V8.33333H2.14286C0.95939 8.33333 0 7.40059 0 6.25C0 5.09941 0.95939 4.16667 2.14286 4.16667H8.57143V2.08333C8.57143 0.93274 9.53082 0 10.7143 0H19.2857ZM10.7143 8.33333C9.61535 8.33333 8.70963 9.13758 8.58585 10.1737L8.57143 10.4167V18.75C8.57143 19.9006 9.53082 20.8333 10.7143 20.8333C11.8132 20.8333 12.7189 20.0291 12.8427 18.993L12.8571 18.75V10.4167C12.8571 9.26607 11.8978 8.33333 10.7143 8.33333ZM19.2857 8.33333C18.1868 8.33333 17.2811 9.13758 17.1573 10.1737L17.1429 10.4167V18.75C17.1429 19.9006 18.1022 20.8333 19.2857 20.8333C20.3846 20.8333 21.2904 20.0291 21.4142 18.993L21.4286 18.75V10.4167C21.4286 9.26607 20.4692 8.33333 19.2857 8.33333Z" fill="#F86624"/>
</svg>
