<svg width="28" height="31" viewBox="0 0 28 31" fill="none" xmlns="http://www.w3.org/2000/svg">
<path fill-rule="evenodd" clip-rule="evenodd" d="M18.2 0.571289C23.6124 0.571289 28 4.43218 28 9.19484C28 13.7987 23.9 17.56 18.7377 17.8056L18.2 17.8184H11.2V20.2823H14C15.5464 20.2823 16.8 21.3854 16.8 22.7461C16.8 24.1069 15.5464 25.21 14 25.21H11.2V27.6739C11.2 29.0346 9.9464 30.1377 8.4 30.1377C6.8536 30.1377 5.6 29.0346 5.6 27.6739V25.21H2.8C1.2536 25.21 0 24.1069 0 22.7461C0 21.3854 1.2536 20.2823 2.8 20.2823H5.6V17.8184H2.8C1.2536 17.8184 0 16.7153 0 15.3545C0 14.091 1.08091 13.0495 2.47346 12.9072L2.8 12.8906H5.6V3.03516C5.6 1.6744 6.8536 0.571289 8.4 0.571289H18.2ZM18.2 5.49903H11.2V12.8906H18.2C20.5196 12.8906 22.4 11.236 22.4 9.19484C22.4 7.27377 20.7343 5.69504 18.6045 5.51595L18.2 5.49903Z" fill="white" fill-opacity="0.95"/>
</svg>
