<svg width="20" height="17" viewBox="0 0 20 17" fill="none" xmlns="http://www.w3.org/2000/svg">
<path fill-rule="evenodd" clip-rule="evenodd" d="M12.375 0C13.1344 0 13.75 0.615608 13.75 1.375V2.75H17.875C18.6344 2.75 19.25 3.36561 19.25 4.125C19.25 4.88439 18.6344 5.5 17.875 5.5H16.5V12.375C16.5 14.6532 14.961 16.5 13.0625 16.5H6.1875C4.28902 16.5 2.75 14.6532 2.75 12.375V5.5H1.375C0.615608 5.5 0 4.88439 0 4.125C0 3.36561 0.615608 2.75 1.375 2.75H5.5V1.375C5.5 0.615608 6.11561 0 6.875 0H12.375ZM6.875 5.5C6.16985 5.5 5.58868 6.03081 5.50925 6.71465L5.5 6.875V12.375C5.5 13.1344 6.11561 13.75 6.875 13.75C7.58015 13.75 8.16132 13.2192 8.24075 12.5354L8.25 12.375V6.875C8.25 6.11561 7.63439 5.5 6.875 5.5ZM12.375 5.5C11.6699 5.5 11.0887 6.03081 11.0093 6.71465L11 6.875V12.375C11 13.1344 11.6156 13.75 12.375 13.75C13.0801 13.75 13.6613 13.2192 13.7407 12.5354L13.75 12.375V6.875C13.75 6.11561 13.1344 5.5 12.375 5.5Z" fill="black"/>
</svg>
