<svg width="36" height="36" viewBox="0 0 36 36" fill="none" xmlns="http://www.w3.org/2000/svg">
<path fill-rule="evenodd" clip-rule="evenodd" d="M14.6475 0H21.3525C22.3484 0 23.2706 0.591997 23.8255 1.56186L24.0158 1.94286L25.3244 4.97143C26.7806 8.34162 29.5957 10.5309 32.7242 10.7769L33.3142 10.8H34.3333C35.1618 10.8 35.849 11.5253 35.9782 12.4756L36 12.8V32.4C36 34.2462 34.8419 35.7678 33.3499 35.9758L33 36H3C1.46149 36 0.193478 34.6103 0.0201831 32.8198L0 32.4V12.8C0 11.8059 0.604415 10.9812 1.39632 10.8262L1.66667 10.8H2.68582C5.84942 10.8 8.76487 8.80892 10.3869 5.58931L10.6756 4.97143L11.9843 1.94286C12.4427 0.88187 13.3051 0.171985 14.2781 0.0273319L14.6475 0H21.3525H14.6475ZM18 14.4C14.6863 14.4 12 17.6235 12 21.6C12 25.5765 14.6863 28.8 18 28.8C21.3137 28.8 24 25.5765 24 21.6C24 17.6235 21.3137 14.4 18 14.4Z" fill="#F9C80E"/>
</svg>
