<svg width="20" height="20" viewBox="0 0 20 20" fill="none" xmlns="http://www.w3.org/2000/svg">
<path fill-rule="evenodd" clip-rule="evenodd" d="M12.8279 10.0002L19.4135 3.41441C20.1955 2.63243 20.1955 1.36847 19.4135 0.586485C18.6316 -0.195495 17.3676 -0.195495 16.5857 0.586485L10 7.17232L3.41433 0.586485C2.63237 -0.195495 1.36843 -0.195495 0.586471 0.586485C-0.19549 1.36847 -0.19549 2.63243 0.586471 3.41441L7.17214 10.0002L0.586471 16.5861C-0.19549 17.3681 -0.19549 18.632 0.586471 19.414C0.976451 19.804 1.48843 20 2.0004 20C2.51237 20 3.02435 19.804 3.41433 19.414L10 12.8282L16.5857 19.414C16.9757 19.804 17.4876 20 17.9996 20C18.5116 20 19.0235 19.804 19.4135 19.414C20.1955 18.632 20.1955 17.3681 19.4135 16.5861L12.8279 10.0002Z" fill="#F86624"/>
</svg>
