<svg id="SvgjsSvg1001" width="288" height="288" xmlns="http://www.w3.org/2000/svg" version="1.1" xmlns:xlink="http://www.w3.org/1999/xlink" xmlns:svgjs="http://svgjs.com/svgjs"><defs id="SvgjsDefs1002"></defs><g id="SvgjsG1008"><svg xmlns="http://www.w3.org/2000/svg" width="288" height="288" fill="none" viewBox="0 0 36 21"><path fill="#fdfdfd" fill-rule="evenodd" d="M33 16.8C34.6569 16.8 36 17.7402 36 18.9C36 20.0598 34.6569 21 33 21H3C1.34315 21 0 20.0598 0 18.9C0 17.7402 1.34315 16.8 3 16.8H33ZM33 8.4C34.6569 8.4 36 9.3402 36 10.5C36 11.6598 34.6569 12.6 33 12.6H3C1.34315 12.6 0 11.6598 0 10.5C0 9.3402 1.34315 8.4 3 8.4H33ZM33 0C34.6569 0 36 0.940202 36 2.1C36 3.2598 34.6569 4.2 33 4.2H3C1.34315 4.2 0 3.2598 0 2.1C0 0.940202 1.34315 0 3 0H33Z" clip-rule="evenodd" class="color43BCCD svgShape"></path></svg></g></svg>