<svg width="36" height="36" viewBox="0 0 36 36" fill="none" xmlns="http://www.w3.org/2000/svg">
<path fill-rule="evenodd" clip-rule="evenodd" d="M3.60073 7.19757C4.59586 5.87285 6.47647 5.60567 7.80119 6.6008C9.12591 7.59594 9.39309 9.47655 8.39795 10.8013C6.84915 12.863 6 15.3632 6 18C6 24.6274 11.3726 30 18 30C24.6274 30 30 24.6274 30 18C30 15.3643 29.1515 12.865 27.6039 10.8037C26.6091 9.47872 26.8767 7.59817 28.2017 6.60337C29.5266 5.60857 31.4072 5.87622 32.402 7.20118C34.7232 10.2928 36 14.0537 36 18C36 27.9411 27.9411 36 18 36C8.05887 36 0 27.9411 0 18C0 14.0521 1.2778 10.2898 3.60073 7.19757ZM18 0C19.6569 0 21 1.34315 21 3V15C21 16.6569 19.6569 18 18 18C16.3431 18 15 16.6569 15 15V3C15 1.34315 16.3431 0 18 0Z" fill="#F86624"/>
</svg>
