<svg width="22" height="22" viewBox="0 0 22 22" fill="none" xmlns="http://www.w3.org/2000/svg">
<path fill-rule="evenodd" clip-rule="evenodd" d="M11 0.5C11.9665 0.5 12.75 1.2835 12.75 2.25V9.25H19.75C20.7165 9.25 21.5 10.0335 21.5 11C21.5 11.9665 20.7165 12.75 19.75 12.75H12.75V19.75C12.75 20.7165 11.9665 21.5 11 21.5C10.0335 21.5 9.25 20.7165 9.25 19.75V12.75H2.25C1.2835 12.75 0.5 11.9665 0.5 11C0.5 10.0335 1.2835 9.25 2.25 9.25H9.25V2.25C9.25 1.2835 10.0335 0.5 11 0.5Z" fill="#F9C80E"/>
</svg>
