<svg width="30" height="30" viewBox="0 0 30 30" fill="none" xmlns="http://www.w3.org/2000/svg">
<path fill-rule="evenodd" clip-rule="evenodd" d="M24.375 0C27.4816 0 30 2.5184 30 5.625V24.375C30 27.4816 27.4816 30 24.375 30H5.625C2.5184 30 0 27.4816 0 24.375V5.625C0 2.5184 2.5184 0 5.625 0H24.375ZM15 5C13.7179 5 12.6612 5.9651 12.5168 7.20845L12.5 7.5V22.5C12.5 23.8807 13.6193 25 15 25C16.2821 25 17.3388 24.0349 17.4832 22.7916L17.5 22.5V7.5C17.5 6.11929 16.3807 5 15 5ZM22.5 10C21.2179 10 20.1612 10.9651 20.0168 12.2084L20 12.5V22.5C20 23.8807 21.1193 25 22.5 25C23.7821 25 24.8388 24.0349 24.9832 22.7916L25 22.5V12.5C25 11.1193 23.8807 10 22.5 10ZM7.5 15C6.21791 15 5.16123 15.9651 5.01682 17.2084L5 17.5V22.5C5 23.8807 6.11929 25 7.5 25C8.78209 25 9.83877 24.0349 9.98318 22.7916L10 22.5V17.5C10 16.1193 8.88071 15 7.5 15Z" fill="#F86624"/>
</svg>
