<svg width="30" height="28" xmlns="http://www.w3.org/2000/svg">

 <g>
  <title>background</title>
  <rect fill="none" id="canvas_background" height="402" width="582" y="-1" x="-1"/>
 </g>
 <g>
  <title>Layer 1</title>
  <path id="svg_1" fill="#000000" d="m2.5,28c-1.38071,0 -2.5,-1.2536 -2.5,-2.8c0,-6.1856 4.47715,-11.2 10,-11.2c1.8226,0 3.5313,0.5461 5.0028,1.5002c1.4678,-0.9547 3.1756,-1.5002 4.9972,-1.5002c5.5228,0 10,5.0144 10,11.2c0,1.4359 -0.9651,2.6194 -2.2085,2.7812l-0.2915,0.0188l-25,0zm7.5,-28c2.7614,0 5,2.50721 5,5.6c0,3.09279 -2.2386,5.6 -5,5.6c-2.76143,0 -5,-2.50721 -5,-5.6c0,-3.09279 2.23857,-5.6 5,-5.6zm11.25,2.8c2.0711,0 3.75,1.8804 3.75,4.2c0,2.3196 -1.6789,4.2 -3.75,4.2c-2.0711,0 -3.75,-1.8804 -3.75,-4.2c0,-2.3196 1.6789,-4.2 3.75,-4.2z" clip-rule="evenodd" fill-rule="evenodd"/>
 </g>
</svg>