<svg width="28" height="28" viewBox="0 0 28 28" fill="none" xmlns="http://www.w3.org/2000/svg">
<path fill-rule="evenodd" clip-rule="evenodd" d="M13.2208 24.4697L7.16139 27.7987C6.34291 28.2483 5.33058 27.9195 4.90028 27.0642C4.72893 26.7236 4.66981 26.3335 4.73205 25.9542L5.88929 18.9033C5.98245 18.3357 5.80238 17.7566 5.40776 17.3546L0.505622 12.3611C-0.156539 11.6866 -0.170088 10.5789 0.475359 9.8869C0.73238 9.61136 1.06915 9.43204 1.43355 9.37671L8.20814 8.34799C8.75348 8.26519 9.22491 7.90726 9.46879 7.39085L12.4985 0.975716C12.9077 0.109186 13.9117 -0.24659 14.7409 0.181068C15.0711 0.351364 15.3383 0.630659 15.5013 0.975716L18.531 7.39085C18.7749 7.90726 19.2463 8.26519 19.7916 8.34799L26.5662 9.37671C27.4813 9.51566 28.1153 10.4035 27.9824 11.3598C27.9294 11.7406 27.7578 12.0925 27.4942 12.3611L22.592 17.3546C22.1974 17.7566 22.0173 18.3357 22.1105 18.9033L23.2677 25.9542C23.424 26.9066 22.8119 27.8111 21.9006 27.9745C21.5376 28.0395 21.1643 27.9777 20.8384 27.7987L14.779 24.4697C14.2912 24.2017 13.7085 24.2017 13.2208 24.4697ZM10.9737 20.3796C12.8609 19.3428 15.1389 19.3428 17.0261 20.3796L17.6829 20.7405L17.5054 19.6591C17.1728 17.6323 17.8184 15.5557 19.2619 14.0854L20.1996 13.1301L19.091 12.9618C16.9932 12.6432 15.2119 11.2908 14.3112 9.38372L13.9999 8.72445L13.6885 9.38372C12.7879 11.2908 11.0066 12.6432 8.90874 12.9618L7.80014 13.1301L8.73791 14.0854C10.1813 15.5557 10.827 17.6323 10.4943 19.6591L10.3169 20.7405L10.9737 20.3796Z" fill="#F9C80E"/>
</svg>
