<svg width="28" height="30" viewBox="0 0 28 30" fill="none" xmlns="http://www.w3.org/2000/svg">
<path fill-rule="evenodd" clip-rule="evenodd" d="M18.2 0C23.6124 0 28 3.91751 28 8.75C28 13.4214 23.9 17.2378 18.7377 17.4871L18.2 17.5H11.2V20H14C15.5464 20 16.8 21.1193 16.8 22.5C16.8 23.8807 15.5464 25 14 25H11.2V27.5C11.2 28.8807 9.94639 30 8.4 30C6.8536 30 5.6 28.8807 5.6 27.5V25H2.8C1.2536 25 0 23.8807 0 22.5C0 21.1193 1.2536 20 2.8 20H5.6V17.5H2.8C1.2536 17.5 0 16.3807 0 15C0 13.7179 1.08091 12.6612 2.47346 12.5168L2.8 12.5H5.6V2.5C5.6 1.11929 6.8536 0 8.4 0H18.2ZM18.2 5H11.2V12.5H18.2C20.5196 12.5 22.4 10.8211 22.4 8.75C22.4 6.80076 20.7343 5.19888 18.6045 5.01717L18.2 5Z" fill="black"/>
</svg>
