<svg width="30" height="28" viewBox="0 0 30 28" fill="none" xmlns="http://www.w3.org/2000/svg">
<path fill-rule="evenodd" clip-rule="evenodd" d="M2.5 28C1.11929 28 0 26.7464 0 25.2C0 19.0144 4.47715 14 10 14C11.8226 14 13.5313 14.5461 15.0028 15.5002C16.4706 14.5455 18.1784 14 20 14C25.5228 14 30 19.0144 30 25.2C30 26.6359 29.0349 27.8194 27.7915 27.9812L27.5 28H2.5ZM10 0C12.7614 0 15 2.50721 15 5.6C15 8.69279 12.7614 11.2 10 11.2C7.23857 11.2 5 8.69279 5 5.6C5 2.50721 7.23857 0 10 0ZM21.25 2.8C23.3211 2.8 25 4.6804 25 7C25 9.3196 23.3211 11.2 21.25 11.2C19.1789 11.2 17.5 9.3196 17.5 7C17.5 4.6804 19.1789 2.8 21.25 2.8Z" fill="#F86624"/>
</svg>
