<svg width="28" height="28" viewBox="0 0 28 28" fill="none" xmlns="http://www.w3.org/2000/svg">
<path d="M17.4422 21.1787L18.3427 21.6735L18.1763 20.6595L17.9988 19.5781C17.6917 17.7067 18.2882 15.7909 19.6187 14.4356L20.5564 13.4804L21.2415 12.7826L20.2747 12.6358L19.1661 12.4674C17.236 12.1744 15.5943 10.9297 14.7634 9.1702L14.452 8.51093L13.9999 7.55361L13.5478 8.51093L13.2364 9.1702C12.4055 10.9297 10.7637 12.1744 8.83367 12.4674L7.72507 12.6358L6.7583 12.7826L7.44333 13.4804L8.38111 14.4356C9.71155 15.7909 10.3081 17.7067 10.0009 19.5781L9.82346 20.6595L9.65704 21.6735L10.5576 21.1787L11.2145 20.8178C12.9517 19.8634 15.0481 19.8634 16.7853 20.8178L17.4422 21.1787ZM12.98 24.0315L6.92063 27.3604C6.36122 27.6678 5.65556 27.4529 5.34694 26.8395C5.22349 26.5941 5.18017 26.3111 5.22545 26.0352L6.38269 18.9843C6.50102 18.2633 6.27361 17.5229 5.76457 17.0043L0.862424 12.0108C0.388071 11.5276 0.377726 10.7246 0.840989 10.228C1.02304 10.0328 1.25824 9.90906 1.50861 9.87104L8.2832 8.84233C8.99999 8.73348 9.60894 8.26494 9.9209 7.60438L12.9506 1.18924C13.2447 0.566489 13.9457 0.333561 14.5117 0.625448C14.7414 0.743923 14.9318 0.940632 15.0492 1.18924L18.0789 7.60438C18.3908 8.26494 18.9998 8.73348 19.7166 8.84233L26.4912 9.87104C27.1166 9.96601 27.5851 10.5862 27.4871 11.2909C27.4486 11.568 27.3242 11.8205 27.1374 12.0108L22.2352 17.0043C21.7262 17.5229 21.4988 18.2633 21.6171 18.9843L22.7743 26.0352C22.8895 26.737 22.4361 27.3705 21.8123 27.4823C21.5631 27.527 21.3058 27.4849 21.0792 27.3604L15.0198 24.0315C14.3821 23.6811 13.6177 23.6811 12.98 24.0315Z" fill="black" stroke="white"/>
</svg>
