<svg width="30" height="30" viewBox="0 0 30 30" fill="none" xmlns="http://www.w3.org/2000/svg">
<path fill-rule="evenodd" clip-rule="evenodd" d="M22.5 0C26.6421 0 30 3.35786 30 7.5V22.5C30 26.6421 26.6421 30 22.5 30H7.5C3.35786 30 0 26.6421 0 22.5V7.5C0 3.35786 3.35786 0 7.5 0H22.5ZM22.5 5H7.5C6.11929 5 5 6.11929 5 7.5V21.7425L10 17.5L17.5 22.5L25 15V7.5C25 6.11929 23.8807 5 22.5 5ZM11.25 15C13.3211 15 15 13.3211 15 11.25C15 9.17893 13.3211 7.5 11.25 7.5C9.17893 7.5 7.5 9.17893 7.5 11.25C7.5 13.3211 9.17893 15 11.25 15Z" fill="black"/>
</svg>
