<svg width="214" height="50" viewBox="0 0 214 50" fill="none" xmlns="http://www.w3.org/2000/svg">
<circle cx="25" cy="25" r="25" fill="#FFE11A"/>
<path d="M21.1172 17.9375L25.5 30.3125L29.8594 17.9375H34.4766V35H30.9492V30.3359L31.3008 22.2852L26.6953 35H24.2812L19.6875 22.2969L20.0391 30.3359V35H16.5234V17.9375H21.1172ZM44.6719 35C44.5156 34.6953 44.4023 34.3164 44.332 33.8633C43.5117 34.7773 42.4453 35.2344 41.1328 35.2344C39.8906 35.2344 38.8594 34.875 38.0391 34.1562C37.2266 33.4375 36.8203 32.5312 36.8203 31.4375C36.8203 30.0938 37.3164 29.0625 38.3086 28.3438C39.3086 27.625 40.75 27.2617 42.6328 27.2539H44.1914V26.5273C44.1914 25.9414 44.0391 25.4727 43.7344 25.1211C43.4375 24.7695 42.9648 24.5938 42.3164 24.5938C41.7461 24.5938 41.2969 24.7305 40.9688 25.0039C40.6484 25.2773 40.4883 25.6523 40.4883 26.1289H37.1016C37.1016 25.3945 37.3281 24.7148 37.7812 24.0898C38.2344 23.4648 38.875 22.9766 39.7031 22.625C40.5312 22.2656 41.4609 22.0859 42.4922 22.0859C44.0547 22.0859 45.293 22.4805 46.207 23.2695C47.1289 24.0508 47.5898 25.1523 47.5898 26.5742V32.0703C47.5977 33.2734 47.7656 34.1836 48.0938 34.8008V35H44.6719ZM41.8711 32.6445C42.3711 32.6445 42.832 32.5352 43.2539 32.3164C43.6758 32.0898 43.9883 31.7891 44.1914 31.4141V29.2344H42.9258C41.2305 29.2344 40.3281 29.8203 40.2188 30.9922L40.207 31.1914C40.207 31.6133 40.3555 31.9609 40.6523 32.2344C40.9492 32.5078 41.3555 32.6445 41.8711 32.6445ZM53.3086 22.3203L53.4141 23.7852C54.3203 22.6523 55.5352 22.0859 57.0586 22.0859C58.4023 22.0859 59.4023 22.4805 60.0586 23.2695C60.7148 24.0586 61.0508 25.2383 61.0664 26.8086V35H57.6797V26.8906C57.6797 26.1719 57.5234 25.6523 57.2109 25.332C56.8984 25.0039 56.3789 24.8398 55.6523 24.8398C54.6992 24.8398 53.9844 25.2461 53.5078 26.0586V35H50.1211V22.3203H53.3086ZM63.1523 28.5664C63.1523 26.6211 63.6133 25.0547 64.5352 23.8672C65.4648 22.6797 66.7148 22.0859 68.2852 22.0859C69.6758 22.0859 70.7578 22.5625 71.5312 23.5156L71.6719 22.3203H74.7422V34.5781C74.7422 35.6875 74.4883 36.6523 73.9805 37.4727C73.4805 38.293 72.7734 38.918 71.8594 39.3477C70.9453 39.7773 69.875 39.9922 68.6484 39.9922C67.7188 39.9922 66.8125 39.8047 65.9297 39.4297C65.0469 39.0625 64.3789 38.5859 63.9258 38L65.4258 35.9375C66.2695 36.8828 67.293 37.3555 68.4961 37.3555C69.3945 37.3555 70.0938 37.1133 70.5938 36.6289C71.0938 36.1523 71.3438 35.4727 71.3438 34.5898V33.9102C70.5625 34.793 69.5352 35.2344 68.2617 35.2344C66.7383 35.2344 65.5039 34.6406 64.5586 33.4531C63.6211 32.2578 63.1523 30.6758 63.1523 28.707V28.5664ZM66.5391 28.8125C66.5391 29.9609 66.7695 30.8633 67.2305 31.5195C67.6914 32.168 68.3242 32.4922 69.1289 32.4922C70.1602 32.4922 70.8984 32.1055 71.3438 31.332V26C70.8906 25.2266 70.1602 24.8398 69.1523 24.8398C68.3398 24.8398 67.6992 25.1719 67.2305 25.8359C66.7695 26.5 66.5391 27.4922 66.5391 28.8125ZM76.8281 28.543C76.8281 27.2852 77.0703 26.1641 77.5547 25.1797C78.0391 24.1953 78.7344 23.4336 79.6406 22.8945C80.5547 22.3555 81.6133 22.0859 82.8164 22.0859C84.5273 22.0859 85.9219 22.6094 87 23.6562C88.0859 24.7031 88.6914 26.125 88.8164 27.9219L88.8398 28.7891C88.8398 30.7344 88.2969 32.2969 87.2109 33.4766C86.125 34.6484 84.668 35.2344 82.8398 35.2344C81.0117 35.2344 79.5508 34.6484 78.457 33.4766C77.3711 32.3047 76.8281 30.7109 76.8281 28.6953V28.543ZM80.2148 28.7891C80.2148 29.9922 80.4414 30.9141 80.8945 31.5547C81.3477 32.1875 81.9961 32.5039 82.8398 32.5039C83.6602 32.5039 84.3008 32.1914 84.7617 31.5664C85.2227 30.9336 85.4531 29.9258 85.4531 28.543C85.4531 27.3633 85.2227 26.4492 84.7617 25.8008C84.3008 25.1523 83.6523 24.8281 82.8164 24.8281C81.9883 24.8281 81.3477 25.1523 80.8945 25.8008C80.4414 26.4414 80.2148 27.4375 80.2148 28.7891ZM100.641 28.9883V35H97.125V17.9375H103.781C105.062 17.9375 106.188 18.1719 107.156 18.6406C108.133 19.1094 108.883 19.7773 109.406 20.6445C109.93 21.5039 110.191 22.4844 110.191 23.5859C110.191 25.2578 109.617 26.5781 108.469 27.5469C107.328 28.5078 105.746 28.9883 103.723 28.9883H100.641ZM100.641 26.1406H103.781C104.711 26.1406 105.418 25.9219 105.902 25.4844C106.395 25.0469 106.641 24.4219 106.641 23.6094C106.641 22.7734 106.395 22.0977 105.902 21.582C105.41 21.0664 104.73 20.8008 103.863 20.7852H100.641V26.1406ZM115.699 23.7031C116.598 22.625 117.727 22.0859 119.086 22.0859C121.836 22.0859 123.23 23.6836 123.27 26.8789V35H119.883V26.9727C119.883 26.2461 119.727 25.7109 119.414 25.3672C119.102 25.0156 118.582 24.8398 117.855 24.8398C116.863 24.8398 116.145 25.2227 115.699 25.9883V35H112.312V17H115.699V23.7031ZM125.297 28.543C125.297 27.2852 125.539 26.1641 126.023 25.1797C126.508 24.1953 127.203 23.4336 128.109 22.8945C129.023 22.3555 130.082 22.0859 131.285 22.0859C132.996 22.0859 134.391 22.6094 135.469 23.6562C136.555 24.7031 137.16 26.125 137.285 27.9219L137.309 28.7891C137.309 30.7344 136.766 32.2969 135.68 33.4766C134.594 34.6484 133.137 35.2344 131.309 35.2344C129.48 35.2344 128.02 34.6484 126.926 33.4766C125.84 32.3047 125.297 30.7109 125.297 28.6953V28.543ZM128.684 28.7891C128.684 29.9922 128.91 30.9141 129.363 31.5547C129.816 32.1875 130.465 32.5039 131.309 32.5039C132.129 32.5039 132.77 32.1914 133.23 31.5664C133.691 30.9336 133.922 29.9258 133.922 28.543C133.922 27.3633 133.691 26.4492 133.23 25.8008C132.77 25.1523 132.121 24.8281 131.285 24.8281C130.457 24.8281 129.816 25.1523 129.363 25.8008C128.91 26.4414 128.684 27.4375 128.684 28.7891ZM143.449 19.2031V22.3203H145.617V24.8047H143.449V31.1328C143.449 31.6016 143.539 31.9375 143.719 32.1406C143.898 32.3438 144.242 32.4453 144.75 32.4453C145.125 32.4453 145.457 32.418 145.746 32.3633V34.9297C145.082 35.1328 144.398 35.2344 143.695 35.2344C141.32 35.2344 140.109 34.0352 140.062 31.6367V24.8047H138.211V22.3203H140.062V19.2031H143.449ZM146.625 28.543C146.625 27.2852 146.867 26.1641 147.352 25.1797C147.836 24.1953 148.531 23.4336 149.438 22.8945C150.352 22.3555 151.41 22.0859 152.613 22.0859C154.324 22.0859 155.719 22.6094 156.797 23.6562C157.883 24.7031 158.488 26.125 158.613 27.9219L158.637 28.7891C158.637 30.7344 158.094 32.2969 157.008 33.4766C155.922 34.6484 154.465 35.2344 152.637 35.2344C150.809 35.2344 149.348 34.6484 148.254 33.4766C147.168 32.3047 146.625 30.7109 146.625 28.6953V28.543ZM150.012 28.7891C150.012 29.9922 150.238 30.9141 150.691 31.5547C151.145 32.1875 151.793 32.5039 152.637 32.5039C153.457 32.5039 154.098 32.1914 154.559 31.5664C155.02 30.9336 155.25 29.9258 155.25 28.543C155.25 27.3633 155.02 26.4492 154.559 25.8008C154.098 25.1523 153.449 24.8281 152.613 24.8281C151.785 24.8281 151.145 25.1523 150.691 25.8008C150.238 26.4414 150.012 27.4375 150.012 28.7891ZM174.34 29.3164C174.207 31.1523 173.527 32.5977 172.301 33.6523C171.082 34.707 169.473 35.2344 167.473 35.2344C165.285 35.2344 163.562 34.5 162.305 33.0312C161.055 31.5547 160.43 29.5312 160.43 26.9609V25.918C160.43 24.2773 160.719 22.832 161.297 21.582C161.875 20.332 162.699 19.375 163.77 18.7109C164.848 18.0391 166.098 17.7031 167.52 17.7031C169.488 17.7031 171.074 18.2305 172.277 19.2852C173.48 20.3398 174.176 21.8203 174.363 23.7266H170.848C170.762 22.625 170.453 21.8281 169.922 21.3359C169.398 20.8359 168.598 20.5859 167.52 20.5859C166.348 20.5859 165.469 21.0078 164.883 21.8516C164.305 22.6875 164.008 23.9883 163.992 25.7539V27.043C163.992 28.8867 164.27 30.2344 164.824 31.0859C165.387 31.9375 166.27 32.3633 167.473 32.3633C168.559 32.3633 169.367 32.1172 169.898 31.625C170.438 31.125 170.746 30.3555 170.824 29.3164H174.34ZM180 35H176.602V17H180V35ZM190.395 33.7109C189.559 34.7266 188.402 35.2344 186.926 35.2344C185.566 35.2344 184.527 34.8438 183.809 34.0625C183.098 33.2812 182.734 32.1367 182.719 30.6289V22.3203H186.105V30.5117C186.105 31.832 186.707 32.4922 187.91 32.4922C189.059 32.4922 189.848 32.0938 190.277 31.2969V22.3203H193.676V35H190.488L190.395 33.7109ZM207.656 28.7773C207.656 30.8086 207.223 32.3945 206.355 33.5352C205.488 34.668 204.277 35.2344 202.723 35.2344C201.348 35.2344 200.25 34.707 199.43 33.6523L199.277 35H196.23V17H199.617V23.457C200.398 22.543 201.426 22.0859 202.699 22.0859C204.246 22.0859 205.457 22.6562 206.332 23.7969C207.215 24.9297 207.656 26.5273 207.656 28.5898V28.7773ZM204.27 28.5312C204.27 27.25 204.066 26.3164 203.66 25.7305C203.254 25.1367 202.648 24.8398 201.844 24.8398C200.766 24.8398 200.023 25.2812 199.617 26.1641V31.168C200.031 32.0586 200.781 32.5039 201.867 32.5039C202.961 32.5039 203.68 31.9648 204.023 30.8867C204.188 30.3711 204.27 29.5859 204.27 28.5312Z" fill="black"/>
</svg>
